<?xml version="1.0" encoding="UTF-8"?>
<svg id="_レイヤー_2" data-name="レイヤー 2" xmlns="http://www.w3.org/2000/svg" viewBox="0 0 900.76 1036.29">
  <defs>
    <style>
      .cls-1 {
        stroke-width: 3px;
      }

      .cls-1, .cls-2 {
        fill: none;
        stroke: #ed6c1f;
        stroke-miterlimit: 10;
      }

      .cls-3 {
        fill: #fff;
      }

      .cls-4 {
        fill: #ed6c1f;
      }

      .cls-4, .cls-5 {
        opacity: .11;
      }

      .cls-2 {
        stroke-width: 5px;
      }

      .cls-5, .cls-6 {
        fill: #f0863f;
      }
    </style>
  </defs>
  <g id="_レイヤー_1-2" data-name="レイヤー 1">
    <g>
      <g>
        <path class="cls-3" d="M773.32,2.5H127.44C58.72,2.5,2.5,58.72,2.5,127.44v781.41c0,68.72,56.22,124.94,124.94,124.94h645.88c68.72,0,124.94-56.22,124.94-124.94V127.44c0-68.72-56.22-124.94-124.94-124.94ZM539.32,102.03c0,17.47-14.29,31.76-31.76,31.76h-114.35c-17.47,0-31.76-14.29-31.76-31.76h0c0-17.47,14.29-31.76,31.76-31.76h5.65c7.93,0,15.27-4.59,18.36-11.9,5.46-12.92,18.25-21.99,33.17-21.99s27.7,9.07,33.16,21.99c3.09,7.3,10.43,11.9,18.36,11.9h5.65c17.47,0,31.76,14.29,31.76,31.76h0Z"/>
        <path class="cls-2" d="M773.32,2.5H127.44C58.72,2.5,2.5,58.72,2.5,127.44v781.41c0,68.72,56.22,124.94,124.94,124.94h645.88c68.72,0,124.94-56.22,124.94-124.94V127.44c0-68.72-56.22-124.94-124.94-124.94ZM539.32,102.03c0,17.47-14.29,31.76-31.76,31.76h-114.35c-17.47,0-31.76-14.29-31.76-31.76h0c0-17.47,14.29-31.76,31.76-31.76h5.65c7.93,0,15.27-4.59,18.36-11.9,5.46-12.92,18.25-21.99,33.17-21.99s27.7,9.07,33.16,21.99c3.09,7.3,10.43,11.9,18.36,11.9h5.65c17.47,0,31.76,14.29,31.76,31.76h0Z"/>
        <path class="cls-1" d="M127.44,1022.45c-62.64,0-113.6-50.96-113.6-113.6V127.44c0-62.64,50.96-113.6,113.6-113.6h645.88c62.64,0,113.6,50.96,113.6,113.6v781.41c0,62.64-50.96,113.6-113.6,113.6H127.44ZM393.21,58.93c-23.77,0-43.1,19.34-43.1,43.1s19.34,43.1,43.1,43.1h114.35c23.77,0,43.1-19.34,43.1-43.1s-19.34-43.1-43.1-43.1h-5.65c-3.48,0-6.66-2-7.92-4.97-7.43-17.56-24.54-28.91-43.61-28.91s-36.18,11.35-43.61,28.91c-1.26,2.98-4.44,4.97-7.92,4.97h-5.65Z"/>
      </g>
      <rect class="cls-4" x="86.15" y="210.03" width="728.47" height="747.53" rx="68.56" ry="68.56"/>
      <rect class="cls-5" x="127.44" y="436.62" width="645.88" height="472.24" rx="32.65" ry="32.65"/>
      <path class="cls-3" d="M723.79,471.44h-9.65c-.8,0-1.59.08-2.35.24h-217.65c-6.73,0-12.24,5.51-12.24,12.24v7.29c0,6.73,5.51,12.24,12.24,12.24h188.35c10.85,0,19.65,8.8,19.65,19.65v18.71c0,6.73,5.51,12.24,12.24,12.24h9.41c6.73,0,12.24-5.51,12.24-12.24v-58.12h0c0-6.73-5.51-12.24-12.24-12.24Z"/>
      <circle class="cls-3" cx="719.68" cy="578.38" r="15.88"/>
      <g>
        <rect class="cls-6" x="74.15" y="119.21" width="17.31" height="66.58"/>
        <rect class="cls-6" x="98.39" y="119.21" width="5.11" height="66.58"/>
        <rect class="cls-6" x="125.31" y="119.21" width="23.91" height="66.58"/>
        <rect class="cls-6" x="150.8" y="119.21" width="14.29" height="66.58"/>
        <rect class="cls-6" x="175.36" y="119.21" width="8.83" height="66.58"/>
        <rect class="cls-6" x="203" y="119.21" width="34.62" height="66.58"/>
        <rect class="cls-6" x="244.6" y="119.21" width="3" height="66.58"/>
        <rect class="cls-6" x="254.49" y="119.21" width="13.88" height="66.58"/>
        <rect class="cls-6" x="107.49" y="119.21" width="5.11" height="66.58"/>
        <rect class="cls-6" x="279.23" y="119.21" width="17.31" height="66.58"/>
      </g>
    </g>
  </g>
</svg>